<?xml version="1.0" standalone="no"?>
<!DOCTYPE svg PUBLIC "-//W3C//DTD SVG 20010904//EN"
 "http://www.w3.org/TR/2001/REC-SVG-20010904/DTD/svg10.dtd">
<svg version="1.0" xmlns="http://www.w3.org/2000/svg"
 width="500.000000pt" height="500.000000pt" viewBox="0 0 500.000000 500.000000"
 preserveAspectRatio="xMidYMid meet">

<g transform="translate(0.000000,500.000000) scale(0.100000,-0.100000)"
fill="#000000" stroke="none">
<path d="M1583 4246 c-157 -38 -280 -149 -344 -311 l-24 -60 -3 -552 -3 -552
-202 -3 -202 -3 -78 -37 c-134 -64 -223 -175 -252 -315 -20 -91 -22 -1272 -3
-1291 8 -8 51 -12 129 -12 l117 0 6 -43 c15 -98 99 -217 190 -271 104 -61 242
-71 359 -26 111 42 214 163 242 285 l12 50 543 0 543 0 12 -50 c27 -119 132
-244 242 -285 120 -46 264 -33 364 31 96 61 170 168 185 266 l6 43 117 0 c78
0 121 4 129 12 9 9 12 69 12 210 l0 198 165 0 165 0 0 -152 c0 -84 5 -160 10
-168 8 -12 48 -16 243 -18 216 -3 235 -2 257 16 19 16 21 22 11 40 -11 22 -16
22 -231 22 l-220 0 1 533 c1 2107 1 2075 -21 2082 -51 16 -50 39 -50 -771 l0
-754 -165 0 -165 0 0 758 c0 497 -4 770 -11 795 -13 47 -60 102 -110 128 -85
43 -196 12 -254 -70 l-30 -43 -5 -188 -5 -189 -292 322 c-161 177 -305 337
-322 355 l-30 32 -493 -1 c-358 0 -507 -4 -545 -13z m1345 -433 l342 -378 0
-515 0 -515 -165 165 -165 165 68 70 c93 96 96 99 82 124 -6 12 -18 21 -28 21
-9 0 -103 -86 -207 -190 -163 -163 -188 -193 -179 -208 23 -35 49 -25 130 52
43 42 81 76 84 76 3 0 77 -72 165 -160 l160 -160 -333 0 -332 0 0 203 c0 145
-3 206 -12 215 -8 8 -46 12 -105 12 l-93 0 0 358 c0 230 -4 371 -11 397 -29
104 -167 160 -264 107 -30 -16 -72 -64 -84 -95 -7 -18 -11 -164 -11 -408 l0
-379 -340 0 -341 0 3 558 3 557 27 58 c55 116 183 216 304 236 27 5 254 9 504
10 l456 1 342 -377z m597 163 c19 -8 44 -30 55 -48 20 -33 20 -47 20 -1391 l0
-1358 -86 3 -87 3 -14 54 c-31 122 -130 238 -240 282 -82 33 -224 33 -306 0
-112 -44 -214 -165 -242 -286 l-12 -50 -543 0 -543 0 -12 50 c-44 194 -222
326 -418 313 -40 -3 -98 -15 -130 -28 -114 -43 -225 -179 -243 -296 l-6 -44
-89 0 -89 0 0 290 0 290 197 2 198 3 3 249 c2 175 -1 253 -9 262 -9 11 -53 14
-202 14 l-190 0 6 66 c10 133 109 265 235 316 57 23 57 23 625 26 l567 3 0
-199 c0 -141 3 -201 12 -210 18 -18 1347 -17 1353 1 3 6 6 371 8 809 2 788 2
797 23 825 22 30 78 63 107 63 10 0 33 -6 52 -14z m-1292 -416 l27 -30 0 -386
c0 -246 4 -392 10 -405 9 -17 22 -19 105 -19 l95 0 0 -180 0 -180 -215 0 -215
0 0 569 c0 397 3 578 11 600 26 75 127 92 182 31z m1777 -1620 l0 -340 -165 0
-165 0 0 340 0 340 165 0 165 0 0 -340z m-3142 83 l2 -193 -165 0 -165 0 0
195 0 195 163 -2 162 -3 3 -192z m399 -584 c188 -91 243 -339 110 -500 -154
-189 -443 -158 -549 59 -30 59 -33 76 -33 152 0 78 3 90 34 148 89 164 270
222 438 141z m1882 10 c69 -30 124 -82 162 -151 32 -58 34 -69 34 -153 0 -84
-2 -95 -34 -153 -91 -167 -287 -225 -453 -135 -176 96 -223 339 -95 494 95
116 253 156 386 98z"/>
<path d="M1612 2048 c-9 -9 -12 -89 -12 -300 l0 -288 26 -10 c15 -6 196 -10
444 -10 248 0 429 4 444 10 l26 10 0 288 c0 211 -3 291 -12 300 -17 17 -899
17 -916 0z m856 -295 l2 -233 -400 0 -400 0 0 228 c0 126 3 232 7 235 4 4 182
6 397 5 l391 -3 3 -232z"/>
<path d="M1040 1385 c-189 -59 -231 -323 -71 -441 129 -94 303 -54 374 85 72
142 2 312 -147 356 -60 18 -97 18 -156 0z m158 -79 c109 -57 136 -193 54 -279
-39 -41 -74 -57 -127 -57 -59 0 -104 19 -138 59 -72 86 -54 204 42 268 40 27
126 31 169 9z"/>
<path d="M2935 1384 c-142 -50 -208 -220 -137 -355 121 -233 472 -147 472 115
0 176 -171 299 -335 240z m176 -87 c96 -64 114 -182 42 -268 -34 -40 -79 -59
-138 -59 -53 0 -88 16 -127 57 -107 113 -26 293 133 293 42 0 65 -6 90 -23z"/>
</g>
</svg>
